<svg width="135" height="66" viewBox="0 0 135 66" fill="none" xmlns="http://www.w3.org/2000/svg">
<g clip-path="url(#clip0_2388_9414)">
<g clip-path="url(#clip1_2388_9414)">
<path d="M74.3848 58.0017V53.1406H75.4698C76.0481 53.1406 76.477 53.2631 76.7525 53.5053C77.0293 53.7489 77.1678 54.1245 77.1678 54.6349C77.1678 55.1057 77.0281 55.4759 76.7501 55.744C76.472 56.0121 76.0865 56.1454 75.5934 56.1454H75.3339V58.0017H74.3848ZM75.3351 55.3357H75.471C75.7281 55.3357 75.9159 55.2772 76.0321 55.1602C76.1482 55.0431 76.2063 54.854 76.2063 54.5954C76.2063 54.3559 76.1482 54.1817 76.0321 54.0728C75.9159 53.964 75.7281 53.9082 75.471 53.9082H75.3351V55.3357Z" fill="#585655"/>
<path d="M78.5567 58.0017V53.1406H79.6284V57.1185H81.3396V58.0017H78.5567Z" fill="#585655"/>
<path d="M81.3419 58.0017L82.9129 53.1406H83.9221L85.5163 58.0017H84.5117L84.1764 56.9688H82.5765L82.2886 58.0017H81.3419ZM83.9707 56.1522L83.5082 54.5818C83.4955 54.5355 83.4782 54.4552 83.4574 54.3423C83.4366 54.2293 83.4146 54.0905 83.3926 53.9272C83.3684 54.0851 83.3441 54.2252 83.3221 54.3504C83.299 54.4756 83.2828 54.5587 83.2713 54.6008L82.825 56.1509H83.9707V56.1522Z" fill="#585655"/>
<path d="M86.9082 58.0017V53.1406H87.8896L89.8462 55.9699C89.9032 56.0502 89.9638 56.1618 90.0319 56.3074C90.0999 56.453 90.1693 56.6231 90.2423 56.8204C90.22 56.6762 90.2039 56.5333 90.194 56.3918C90.1841 56.2502 90.1792 56.0733 90.1792 55.861V53.1406H91.0826V58.0017H90.1556L88.1446 55.1193C88.0876 55.039 88.027 54.9275 87.9602 54.7818C87.8933 54.6376 87.8228 54.4634 87.7485 54.262C87.7708 54.4022 87.7869 54.5423 87.7968 54.6852C87.8067 54.8281 87.8117 55.0077 87.8117 55.2255V58.0017H86.9082Z" fill="#585655"/>
<path d="M96.145 58.0017V55.7841L94.5587 53.142H95.7321L96.4269 54.4726C96.461 54.5392 96.4964 54.6236 96.5318 54.7242C96.5685 54.8263 96.6052 54.9433 96.6432 55.0766C96.6734 54.9637 96.7062 54.8576 96.7442 54.7583C96.7809 54.6589 96.8242 54.561 96.8714 54.4657L97.561 53.1406H98.733L97.1467 55.7827V58.0003H96.145V58.0017Z" fill="#585655"/>
<path d="M103.607 55.5724C103.607 55.9032 103.545 56.217 103.424 56.5127C103.303 56.8085 103.128 57.0678 102.899 57.2909C102.662 57.5205 102.396 57.6969 102.098 57.8188C101.801 57.9407 101.495 58.0017 101.177 58.0017C100.898 58.0017 100.626 57.9537 100.358 57.8577C100.091 57.7617 99.8473 57.6242 99.6238 57.444C99.3365 57.2118 99.1182 56.9342 98.9649 56.6126C98.8117 56.2897 98.7364 55.9421 98.7364 55.5711C98.7364 55.2378 98.7964 54.9252 98.9164 54.6334C99.0365 54.3416 99.2139 54.0809 99.4463 53.8527C99.6749 53.627 99.9405 53.4519 100.242 53.3274C100.544 53.2029 100.855 53.1406 101.175 53.1406C101.493 53.1406 101.802 53.2029 102.102 53.3274C102.402 53.4519 102.668 53.627 102.898 53.8527C103.129 54.0809 103.304 54.3416 103.424 54.6347C103.547 54.9291 103.607 55.2417 103.607 55.5724ZM101.177 57.121C101.59 57.121 101.931 56.9732 102.201 56.6787C102.47 56.3843 102.604 56.016 102.604 55.5724C102.604 55.1341 102.468 54.7644 102.196 54.4648C101.924 54.1652 101.584 54.0148 101.177 54.0148C100.763 54.0148 100.421 54.1639 100.149 54.4622C99.8767 54.7605 99.74 55.1302 99.74 55.5711C99.74 56.0186 99.8741 56.3882 100.142 56.68C100.409 56.9745 100.754 57.121 101.177 57.121Z" fill="#585655"/>
<path d="M109.171 53.1406V56.0867C109.171 56.7294 108.997 57.2091 108.652 57.5259C108.308 57.8426 107.787 58.0017 107.091 58.0017C106.385 58.0017 105.859 57.8426 105.514 57.5259C105.168 57.2091 104.996 56.7294 104.996 56.0867V53.1406H106.023V55.9276C106.023 56.3173 106.111 56.6115 106.287 56.8089C106.462 57.0064 106.726 57.1045 107.075 57.1045C107.427 57.1045 107.693 57.0051 107.873 56.8076C108.053 56.6088 108.144 56.3159 108.144 55.9276V53.1406H109.171Z" fill="#585655"/>
<path d="M113.348 58.0017H112.162L110.898 55.7304V58.0017H109.869V53.1406H111.341C111.925 53.1406 112.364 53.2549 112.655 53.4849C112.945 53.7149 113.091 54.0592 113.091 54.5192C113.091 54.854 112.991 55.1384 112.792 55.3765C112.593 55.6133 112.335 55.7521 112.02 55.7916L113.348 58.0017ZM110.898 55.2132H111.053C111.469 55.2132 111.743 55.167 111.876 55.0758C112.01 54.9846 112.077 54.824 112.077 54.5954C112.077 54.3559 112.006 54.1871 111.862 54.0864C111.718 53.9857 111.448 53.9354 111.051 53.9354H110.896V55.2132H110.898Z" fill="#585655"/>
<path d="M116.127 58.0003L116.839 53.1406H117.886L118.787 56.0017C118.807 56.0616 118.826 56.1487 118.848 56.2643C118.871 56.3786 118.892 56.5106 118.911 56.6589C118.928 56.5078 118.948 56.3745 118.969 56.2562C118.99 56.1378 119.011 56.0507 119.029 55.9949L119.945 53.1406H120.977L121.693 58.0003H120.744L120.402 55.0698C120.377 54.8535 120.36 54.6889 120.351 54.5787C120.343 54.4685 120.338 54.3651 120.338 54.2698C120.338 54.2195 120.338 54.1814 120.339 54.1555C120.341 54.1297 120.342 54.1079 120.345 54.0875C120.313 54.278 120.282 54.4426 120.253 54.58C120.224 54.7188 120.198 54.8236 120.174 54.8943L119.185 58.0017H118.622L117.648 54.8943C117.639 54.8657 117.621 54.7855 117.592 54.6549C117.563 54.5242 117.524 54.3338 117.471 54.0835V54.2263C117.471 54.4521 117.452 54.7283 117.414 55.0562L117.411 55.0698L117.072 58.0003H116.127Z" fill="#585655"/>
<path d="M123.086 58.0017V53.1406H125.869V54.017H124.096V55.0159H125.869V55.8991H124.096V57.1171H125.869V58.0003H123.086V58.0017Z" fill="#585655"/>
<path d="M126.565 58.0017L128.136 53.1406H129.145L130.739 58.0017H129.734L129.399 56.9688H127.799L127.511 58.0017H126.565ZM129.193 56.1522L128.731 54.5818C128.718 54.5355 128.701 54.4552 128.68 54.3423C128.659 54.2293 128.637 54.0905 128.615 53.9272C128.591 54.0851 128.567 54.2252 128.545 54.3504C128.522 54.4756 128.505 54.5587 128.494 54.6008L128.048 56.1509H129.193V56.1522Z" fill="#585655"/>
<path d="M131.434 58.0017V53.1406H132.505V57.1185H134.217V58.0017H131.434Z" fill="#585655"/>
<path d="M68.8942 8L59.2601 12.9566L62.5882 13.6767L60.4578 23.5577C58.8638 22.4578 56.7985 21.8354 55.9321 21.6523C52.4577 20.9186 49.2422 21.5545 46.2854 23.5577C44.8689 24.5203 43.665 25.7453 42.6661 27.2312C41.6609 28.7172 40.9783 30.3022 40.622 31.9725C39.8606 35.4766 40.4294 38.7566 42.3223 41.8214C44.3076 45.0631 47.3043 47.0997 51.3013 47.9448C55.2582 48.7824 58.8713 48.0363 62.1331 45.7114C64.8723 43.7726 66.6451 40.9244 67.4528 37.1729L72.071 15.7529L75.0815 16.4334L68.8942 8ZM54.2505 38.9373C52.0039 38.9373 50.1823 37.1345 50.1823 34.9111C50.1823 32.6877 52.0039 30.885 54.2505 30.885C56.4971 30.885 58.3187 32.6877 58.3187 34.9111C58.3187 37.1345 56.4971 38.9373 54.2505 38.9373Z" fill="#585655"/>
<path d="M10.1299 24.6641C11.2626 24.6641 12.3665 24.8834 13.4394 25.3221C14.5122 25.7608 15.4528 26.382 16.2586 27.1847C17.904 28.8009 18.7273 30.7334 18.7273 32.9807C18.7273 34.0627 18.5065 35.119 18.0649 36.152C17.6233 37.185 16.9996 38.093 16.1937 38.8736C14.5159 40.5119 12.4726 41.3305 10.0637 41.3305C7.60127 41.3305 5.51926 40.496 3.81898 38.8258C2.16236 37.1874 1.33405 35.2501 1.33405 33.0126C1.33405 31.8987 1.55984 30.8204 2.01266 29.7764C2.46549 28.7323 3.10045 27.8317 3.91753 27.0707C5.64027 25.4667 7.71105 24.6641 10.1299 24.6641ZM9.99887 30.6696C9.36641 30.6696 8.82752 30.889 8.38093 31.3277C7.91188 31.7884 7.67861 32.3398 7.67861 32.9819C7.67861 33.624 7.91313 34.1755 8.38093 34.6362C8.83874 35.0969 9.39511 35.3261 10.0488 35.3261C10.7137 35.3261 11.2688 35.0957 11.7166 34.6362C12.1632 34.1755 12.3865 33.6302 12.3865 32.9979C12.3865 32.3447 12.152 31.7933 11.6842 31.3436C11.2139 30.8939 10.6525 30.6696 9.99887 30.6696Z" fill="#585655"/>
<path d="M36.1206 41.3305H29.9184V32.4679C29.9184 31.7291 29.8134 31.2255 29.6033 30.9584C29.349 30.6263 28.9731 30.4609 28.4758 30.4609C27.9228 30.4609 27.5254 30.6533 27.2824 31.0392C27.1053 31.2966 27.0167 31.772 27.0167 32.4679V41.3305H20.8145V31.9692C20.8145 29.711 21.3954 27.9773 22.5558 26.7667C23.9048 25.3649 25.8777 24.6641 28.4758 24.6641C31.3054 24.6641 33.3846 25.4887 34.7108 27.1367C35.6498 28.3142 36.1206 29.9255 36.1206 31.9692V41.3305Z" fill="#585655"/>
<path d="M91.3047 25.3594H97.344V34.3838C97.344 35.7258 97.1714 36.8069 96.8276 37.626C96.2781 38.946 95.3798 39.9309 94.1303 40.5805C93.1728 41.0803 92.0576 41.3313 90.7884 41.3313C89.4108 41.3313 88.2475 41.0437 87.3012 40.4684C86.9463 40.2453 86.5261 39.8992 86.0418 39.4299C85.4713 39.8882 84.987 40.2283 84.589 40.4525C83.5564 41.0376 82.3993 41.3313 81.1178 41.3313C79.0291 41.3313 77.3397 40.6658 76.0471 39.3348C74.9381 38.1952 74.3848 36.6838 74.3848 34.7982V25.3594H80.424V33.8561C80.424 34.9957 80.8331 35.5649 81.6514 35.5649C82.1566 35.5649 82.5127 35.3516 82.7172 34.9262C82.8035 34.7349 82.8466 34.346 82.8466 33.761V25.3594H88.8858V33.761C88.8858 34.964 89.2999 35.5661 90.1292 35.5661C90.6344 35.5661 90.9905 35.3321 91.1951 34.8628C91.2702 34.6922 91.3084 34.2827 91.3084 33.633V25.3594H91.3047Z" fill="#585655"/>
<path d="M116.825 41.4793H110.647V34.5111C110.647 33.5161 110.487 32.7883 110.168 32.3276C109.729 31.6855 109.068 31.3645 108.187 31.3645C107.571 31.3645 107.036 31.563 106.585 31.9588C106.09 32.3864 105.841 32.9378 105.841 33.6117C105.841 34.2758 106.067 34.8272 106.518 35.2658C106.958 35.6837 107.487 35.892 108.104 35.892C108.633 35.892 109.145 35.7854 109.64 35.5709V41.4793C109.078 41.8432 108.341 42.0258 107.427 42.0258C105.058 42.0258 103.072 41.0946 101.464 39.2321C100.11 37.6699 99.4317 35.8503 99.4317 33.7734C99.4317 31.28 100.339 29.2239 102.157 27.6078C103.842 26.1092 105.861 25.3594 108.218 25.3594C110.971 25.3594 113.19 26.3494 114.875 28.3295C116.175 29.8599 116.824 31.7762 116.824 34.0773V41.4793H116.825Z" fill="#585655"/>
<path d="M121.928 48.3296V43.1234C122.757 43.4656 123.482 43.6355 124.104 43.6355C126.089 43.6355 127.376 42.5403 127.966 40.3522C126.897 40.9719 125.849 41.2812 124.824 41.2812C123.307 41.2812 122.059 40.7287 121.078 39.6236C120.096 38.5186 119.606 37.1116 119.606 35.4026V25.3594H125.725V33.9455C125.725 34.8966 126.128 35.3709 126.936 35.3709C127.71 35.3709 128.098 34.8477 128.098 33.8013V25.3594H134.216V39.615C134.216 42.2738 133.452 44.4203 131.925 46.0547C130.103 47.9983 127.9 48.9701 125.315 48.9701C124.179 48.9701 123.051 48.7562 121.928 48.3296Z" fill="#585655"/>
<path d="M59.7743 28.2026C59.4692 27.9341 59.1436 27.6796 58.8078 27.4453L58.3829 28.1312C58.6953 28.3485 58.9976 28.5859 59.2808 28.8342L59.7743 28.2026Z" fill="white"/>
<path d="M56.9915 26.6817C56.3451 26.3806 55.6706 26.1727 54.985 26.0625L54.9044 26.8772C55.5398 26.9781 56.1667 27.172 56.7679 27.4514L56.9915 26.6817Z" fill="white"/>
<path d="M49.3412 28.1008L48.9751 27.4453C48.3536 27.8818 47.7751 28.3986 47.254 28.9811L47.7412 29.5286C48.2259 28.9855 48.7653 28.5052 49.3412 28.1008Z" fill="white"/>
<path d="M47.254 42.5912C47.7803 43.1719 48.3637 43.6846 48.9872 44.1146L49.3412 43.4452C48.7617 43.0463 48.2198 42.5705 47.731 42.0312L47.254 42.5912Z" fill="white"/>
<path d="M50.7325 44.2525C51.3886 44.5399 52.0716 44.7282 52.762 44.8107L52.8197 43.9404C52.1783 43.8644 51.5443 43.6911 50.9348 43.4219L50.7325 44.2525Z" fill="white"/>
<path d="M52.7499 26.9169L52.8197 26.9088L52.7866 26.4816L52.6875 26.0625C52.0228 26.1551 51.3654 26.35 50.7325 26.6375L50.943 27.4514C51.5294 27.1817 52.139 27.003 52.7499 26.9169Z" fill="white"/>
<path d="M45.1661 38.7852C45.3893 39.4374 45.6834 40.0625 46.0414 40.6458L46.5575 40.2914C46.2251 39.75 45.9519 39.1679 45.745 38.5625L45.1661 38.7852Z" fill="white"/>
<path d="M46.5575 30.5744L46.0306 30.2266C45.6754 30.8141 45.3849 31.4421 45.1661 32.0948L45.753 32.3099C45.9577 31.7052 46.2282 31.1213 46.5575 30.5744Z" fill="white"/>
<path d="M45.1076 35.3693C45.1076 35.2188 45.1112 35.067 45.1184 34.9152C45.1268 34.7621 45.1389 34.6103 45.1533 34.4597L44.5212 34.3906C44.5044 34.5523 44.4912 34.7152 44.4828 34.8794C44.4744 35.0435 44.4708 35.2064 44.4708 35.3681C44.4708 35.7359 44.4924 36.1086 44.5345 36.4739L45.1665 36.3974C45.1268 36.058 45.1076 35.7112 45.1076 35.3693Z" fill="white"/>
<path d="M63.0107 33.747L62.5606 35.7812L63.2396 35.9325L63.6898 33.8982L63.0107 33.747Z" fill="white"/>
<path d="M65.0947 21.9423L64.6446 23.9766L65.3236 24.1278L65.7738 22.0935L65.0947 21.9423Z" fill="white"/>
<path d="M63.7061 29.5829L63.2559 31.6172L63.935 31.7684L64.3851 29.7341L63.7061 29.5829Z" fill="white"/>
<path d="M64.4014 26.1064L63.9512 28.1406L64.6303 28.2918L65.0804 26.2576L64.4014 26.1064Z" fill="white"/>
<path d="M54.9044 44.0324L54.996 44.8107C55.6791 44.6904 56.3512 44.4676 56.9915 44.1482L56.7459 43.4219C56.1545 43.716 55.5349 43.9225 54.9044 44.0324Z" fill="white"/>
<path d="M61.1661 39.6443L61.7577 39.9505C62.0954 39.3455 62.3646 38.7027 62.5575 38.0416L61.9101 37.8672C61.731 38.4832 61.4809 39.0808 61.1661 39.6443Z" fill="white"/>
<path d="M58.3829 42.8278L58.8001 43.4271C59.409 42.9664 59.9711 42.4288 60.4701 41.8296L59.9335 41.3438C59.4707 41.901 58.9489 42.3994 58.3829 42.8278Z" fill="white"/>
<path d="M66.4923 17.7715L66.0372 19.8047L66.7166 19.9541L67.1717 17.9209L66.4923 17.7715Z" fill="white"/>
<path d="M67.1876 14.295L66.7325 16.3281L67.4119 16.4775L67.867 14.4444L67.1876 14.295Z" fill="white"/>
<path d="M67.8847 10.8262L67.4297 12.8594L68.1092 13.0087L68.5641 10.9755L67.8847 10.8262Z" fill="white"/>
</g>
</g>
<defs>
<clipPath id="clip0_2388_9414">
<rect width="134" height="66" fill="white" transform="translate(0.5)"/>
</clipPath>
<clipPath id="clip1_2388_9414">
<rect width="134" height="50" fill="white" transform="translate(0.5 8)"/>
</clipPath>
</defs>
</svg>
