<svg width="260" height="260" viewBox="0 0 260 260" fill="none" xmlns="http://www.w3.org/2000/svg">
<path d="M11.2046 144.279L7.92432 145.851C7.63115 145.991 7.63217 146.408 7.92637 146.548L16.4304 150.572C16.538 150.624 16.6641 150.621 16.7697 150.567L20.3277 148.757C20.6188 148.609 20.6055 148.188 20.3052 148.059L11.5244 144.273C11.4219 144.229 11.305 144.231 11.2046 144.279Z" fill="white"/>
<path d="M56.8836 164.035L52.3426 166.938C52.0863 167.101 52.1109 167.482 52.3846 167.611L73.7256 177.713C73.8537 177.774 74.0055 177.759 74.1203 177.674L79.0365 174.033C79.2754 173.856 79.2323 173.486 78.9596 173.369L57.2445 164.006C57.1266 163.955 56.9913 163.967 56.8836 164.035Z" fill="white"/>
<path d="M29.6016 152.248L25.7433 154.322C25.4644 154.471 25.4747 154.874 25.7607 155.009L38.6838 161.127C38.7996 161.182 38.9339 161.175 39.0446 161.111L43.2484 158.641C43.5201 158.481 43.4955 158.079 43.2054 157.954L29.9368 152.234C29.8292 152.186 29.7052 152.193 29.6016 152.248Z" fill="white"/>
<path d="M101.68 183.361L96.4814 187.844C96.2703 188.025 96.3164 188.364 96.5685 188.484L137.191 207.713C137.349 207.787 137.537 207.747 137.649 207.614L142.918 201.449C143.086 201.252 143.015 200.947 142.778 200.845L102.085 183.299C101.95 183.24 101.792 183.265 101.68 183.361Z" fill="white"/>
<path d="M0.311523 139.441C0.40173 140.658 0.511413 141.878 0.636472 143.099L1.23512 143.383L5.20625 141.552L0.311523 139.441Z" fill="white"/>
<path d="M184.119 229.93L200.737 237.796C201.358 238.09 202.094 238.038 202.664 237.654C204.995 236.079 207.27 234.432 209.486 232.717C210.641 231.822 210.389 230.001 209.047 229.422L189.232 220.878C189.051 220.801 188.841 220.87 188.744 221.04L183.95 229.389C183.837 229.585 183.916 229.834 184.119 229.93Z" fill="white"/>
<path d="M144.744 259.149C146.489 258.949 148.223 258.713 149.944 258.445C151.694 258.171 152.18 255.873 150.692 254.911L3.40421 159.603C18.1546 223.032 78.4549 266.716 144.744 259.149Z" fill="#FACEBC"/>
<path d="M0.0912287 129.964H0C0 130.139 0.00717528 130.315 0.00717528 130.49L234.891 206.703C235.051 206.486 235.209 206.269 235.366 206.05C235.48 205.893 235.576 205.73 235.688 205.571C258.043 173.889 234.954 129.964 196.001 129.964H0.0912287Z" fill="#FACEBC"/>
<path d="M35.9643 40.3072C22.6316 54.3016 12.458 71.1976 6.39795 89.7964L130.027 99.4375L253.689 89.7964C247.576 70.9333 237.323 54.1346 224.112 40.3072L130.029 32.5954L35.9643 40.3072Z" fill="#FAD2C2"/>
<path d="M6.36869 89.7857C2.22034 102.517 -0.0163112 116.036 8.95563e-05 129.971H196.001C234.954 129.971 258.043 173.896 235.688 205.578C251.09 184.071 260.029 157.845 259.997 129.971C259.99 125.098 259.739 120.179 259.173 115.222C258.166 106.411 256.293 97.9094 253.66 89.7857H6.36869Z" fill="#FBDCD0"/>
<path d="M115.234 0.84972C83.7457 4.44489 56.1955 19.0151 35.9263 40.2891H224.074C200.167 15.2673 166.554 0.00037384 130.142 -0.000648499C125.217 -0.00167465 120.244 0.278015 115.234 0.84972Z" fill="#FBDCD0"/>
</svg>
