<svg width="32" height="32" viewBox="0 0 32 32" fill="none" xmlns="http://www.w3.org/2000/svg">
<path d="M6.85509 13.4971L3.78528 21.6853V21.686C4.53648 24.687 6.18763 27.34 8.52499 29.3411L12.3766 27.8968C8.28557 24.2326 6.26632 18.8429 6.85509 13.4971Z" fill="#FE6F46"/>
<path d="M2.74596 24.457L0.392982 30.731C0.111749 31.4804 0.844829 32.2216 1.59978 31.9378L6.56386 30.0767C4.89883 28.4607 3.60722 26.5348 2.74596 24.457Z" fill="#FE6F46"/>
<path d="M13.4359 12.7335L9.93678 9.23438C7.0997 15.6341 9.03927 22.949 14.3921 27.1414L18.1269 25.7409C14.8469 22.3536 13.0728 17.6256 13.4359 12.7335Z" fill="#FE6F46"/>
<path d="M15.2664 14.5645C15.4102 18.5423 17.1426 22.3015 20.0737 25.0107H20.0743L22.8116 23.9845C23.451 23.7445 23.6259 22.9239 23.1453 22.4434L15.2664 14.5645Z" fill="#FE6F46"/>
<path d="M22.1134 17.5093C22.4795 17.8755 23.0731 17.8755 23.4392 17.5093C26.9659 13.9826 30.4001 15.0729 30.4344 15.0843C30.9255 15.248 31.4564 14.9826 31.6202 14.4914C31.784 14.0004 31.5184 13.4693 31.0273 13.3056C30.8424 13.244 26.4505 11.8465 22.1135 16.1836C21.7473 16.5497 21.7473 17.1433 22.1134 17.5093Z" fill="#FE6F46"/>
<path d="M16.1476 10.2178C20.4849 5.88119 19.0868 1.48896 19.0256 1.30397C18.8619 0.812747 18.3306 0.547763 17.8394 0.711503C17.3488 0.875243 17.0832 1.40584 17.247 1.89706C17.2582 1.93143 18.3488 5.36559 14.8215 8.89225C14.4577 9.25604 14.454 9.84919 14.8215 10.2178C15.1895 10.5858 15.7825 10.5829 16.1476 10.2178Z" fill="#FE6F46"/>
<path d="M18.1362 12.2063C17.7701 12.5725 17.7701 13.166 18.1362 13.5321C18.4989 13.8949 19.0883 13.8996 19.4563 13.5376C19.9406 13.2963 21.4438 14.2014 22.2792 13.3663C23.1055 12.5399 22.2275 11.0673 22.4468 10.5512C22.9636 10.3313 24.4357 11.2098 25.262 10.3835C26.0886 9.55701 25.2105 8.08441 25.4298 7.56826C25.9474 7.34833 27.4186 8.2269 28.245 7.40052C29.0716 6.57407 28.1935 5.10147 28.4128 4.58531C28.9272 4.36651 30.4022 5.24309 31.228 4.41751C32.0631 3.58237 31.1597 2.07653 31.3992 1.59475C31.7598 1.22827 31.7579 0.638867 31.3937 0.274577C31.0276 -0.0915257 30.434 -0.0915257 30.0679 0.274577C29.329 1.01347 29.4736 2.05659 29.6128 2.80236C28.867 2.66318 27.8239 2.51863 27.085 3.25746C26.3462 3.99635 26.4907 5.03947 26.6299 5.78524C25.8841 5.64612 24.8409 5.50144 24.1021 6.2404C23.3632 6.97929 23.5078 8.02242 23.647 8.76818C22.9011 8.629 21.8581 8.48439 21.1192 9.22328C20.3803 9.96217 20.5249 11.0053 20.6641 11.7511C19.9182 11.612 18.875 11.4675 18.1362 12.2063Z" fill="#FE6F46"/>
<path d="M23.4392 4.25168C23.8053 3.88557 23.8053 3.29205 23.4392 2.92594C23.0731 2.55984 22.4795 2.55984 22.1134 2.92594C21.7473 3.29205 21.7473 3.88557 22.1134 4.25168C22.4795 4.61778 23.0731 4.61778 23.4392 4.25168Z" fill="#FE6F46"/>
<path d="M29.405 11.1552C29.9227 11.1552 30.3424 10.7355 30.3424 10.2177C30.3424 9.69998 29.9227 9.28027 29.405 9.28027C28.8872 9.28027 28.4675 9.69998 28.4675 10.2177C28.4675 10.7355 28.8872 11.1552 29.405 11.1552Z" fill="#FE6F46"/>
<path d="M27.4164 18.8351C27.0503 19.2012 27.0503 19.7948 27.4164 20.1609C27.7825 20.527 28.376 20.527 28.7421 20.1609C29.1082 19.7948 29.1082 19.2012 28.7421 18.8351C28.3761 18.469 27.7825 18.469 27.4164 18.8351Z" fill="#FE6F46"/>
<path d="M14.1589 5.57785C14.525 5.21174 14.525 4.61822 14.1589 4.25212C13.7928 3.88601 13.1993 3.88601 12.8332 4.25212C12.4671 4.61816 12.4671 5.21174 12.8332 5.57785C13.1993 5.94395 13.7929 5.94395 14.1589 5.57785Z" fill="#FE6F46"/>
</svg>
