<svg width="32" height="32" viewBox="0 0 32 32" fill="none" xmlns="http://www.w3.org/2000/svg">
<path d="M14.7559 5.13649C12.9791 5.63807 11.6184 7.0592 11.1622 8.87323C11.0022 9.50856 11.0102 10.8712 11.1702 11.5232C11.6345 13.4125 13.1472 14.9005 14.98 15.2934C15.7564 15.4606 16.2526 15.4606 17.029 15.2934C18.0054 15.0844 18.7418 14.6664 19.4941 13.889C20.2145 13.145 20.6147 12.4261 20.8468 11.4898C21.0549 10.6705 20.9828 9.14074 20.7027 8.38838C20.1424 6.86693 18.9739 5.70495 17.5252 5.22009C16.7649 4.96094 15.5003 4.9275 14.7559 5.13649Z" fill="url(#paint0_linear_2314_10906)"/>
<path d="M6.11988 9.60889C5.15143 9.85968 4.34305 10.5368 3.90284 11.4898C3.67874 11.9496 3.63872 12.1335 3.61471 12.8106C3.58269 13.471 3.6067 13.6716 3.75877 14.1147C4.10294 15.0928 4.62318 15.6863 5.5116 16.121C6.48005 16.5975 7.75265 16.5139 8.65707 15.9204C10.682 14.5661 10.722 11.4814 8.72111 10.0854C7.96075 9.55873 6.99229 9.38318 6.11988 9.60889Z" fill="url(#paint1_linear_2314_10906)"/>
<path d="M24.2324 9.65068C22.6236 10.0854 21.6231 11.7239 21.8632 13.5295C22.0793 15.2098 23.464 16.4303 25.1448 16.4303C26.4414 16.4303 27.5619 15.6863 28.1542 14.424C28.3543 14.006 28.3703 13.8806 28.3703 13.0029C28.3703 12.0833 28.3623 12.0164 28.1062 11.4731C27.642 10.495 26.8016 9.80951 25.7851 9.5838C25.2168 9.45841 24.8727 9.47513 24.2324 9.65068Z" fill="url(#paint2_linear_2314_10906)"/>
<path d="M11.6425 15.9622C9.63353 16.5891 8.10481 17.4669 7.16037 18.5369C6.64813 19.1137 6.368 19.5902 6.08787 20.351C5.89577 20.8776 5.88777 20.9947 5.86376 23.118C5.83175 25.2998 5.83175 25.3416 6.01583 25.7095C6.25594 26.2027 6.68815 26.4284 8.32892 26.9132C11.0822 27.7409 12.9391 28 16.0045 28C19.07 28 20.9268 27.7409 23.6801 26.9132C25.3209 26.4284 25.7531 26.2027 25.9852 25.7095C26.1613 25.3584 26.1693 25.2497 26.1693 23.4106C26.1693 21.212 26.0893 20.6519 25.649 19.724C24.9527 18.236 23.1599 16.8901 20.8068 16.1043C19.4221 15.6445 19.3501 15.6362 18.9499 15.8702C17.9414 16.4805 16.4687 16.7731 15.2842 16.6142C14.5158 16.5055 13.6114 16.2046 13.0671 15.8786C12.8831 15.7699 12.683 15.6779 12.6269 15.6779C12.5709 15.6863 12.1307 15.8117 11.6425 15.9622Z" fill="url(#paint3_linear_2314_10906)"/>
<path d="M3.57469 17.2663C1.92592 17.8431 0.741361 18.7292 0.261135 19.7574C0.0370297 20.2256 0.0370297 20.259 0.0130184 21.9894C-0.0189966 24.0459 -0.0670191 23.9205 0.885429 24.2549C1.8939 24.6144 4.03891 25.1243 4.52714 25.1243C4.59917 25.1243 4.63119 24.5976 4.6552 22.9675L4.68722 20.8191L4.94334 20.0166C5.17545 19.2809 5.83175 18.0521 6.07187 17.9016C6.25595 17.7846 6.1519 17.6174 5.86377 17.5672C5.69569 17.5421 5.32752 17.4084 5.05539 17.2663C4.77526 17.1325 4.48712 17.0155 4.41509 17.0239C4.33505 17.0239 3.95887 17.1325 3.57469 17.2663Z" fill="url(#paint4_linear_2314_10906)"/>
<path d="M27.0257 17.2328C26.8176 17.3499 26.4654 17.4836 26.2493 17.5421C26.0252 17.5923 25.8491 17.6675 25.8491 17.7093C25.8491 17.7428 25.9932 17.9601 26.1693 18.1942C26.3453 18.4283 26.6175 18.888 26.7615 19.2224C27.2578 20.3008 27.3058 20.6017 27.3458 22.9675C27.3778 24.5976 27.4098 25.1243 27.4819 25.1243C27.5379 25.1243 27.9941 25.049 28.4984 24.9487C29.7069 24.723 31.3957 24.2215 31.7159 24.0041L31.972 23.8202L31.996 22.1984C32.02 20.3259 31.948 19.9581 31.4517 19.2642C30.8274 18.4032 29.7629 17.701 28.3463 17.2328C27.5539 16.9737 27.5139 16.9737 27.0257 17.2328Z" fill="url(#paint5_linear_2314_10906)"/>
<defs>
<linearGradient id="paint0_linear_2314_10906" x1="-4" y1="2.39922" x2="32" y2="27.9992" gradientUnits="userSpaceOnUse">
<stop stop-color="#EE1A13"/>
<stop offset="1" stop-color="#FB6F03"/>
</linearGradient>
<linearGradient id="paint1_linear_2314_10906" x1="-4" y1="2.39922" x2="32" y2="27.9992" gradientUnits="userSpaceOnUse">
<stop stop-color="#EE1A13"/>
<stop offset="1" stop-color="#FB6F03"/>
</linearGradient>
<linearGradient id="paint2_linear_2314_10906" x1="-4" y1="2.39922" x2="32" y2="27.9992" gradientUnits="userSpaceOnUse">
<stop stop-color="#EE1A13"/>
<stop offset="1" stop-color="#FB6F03"/>
</linearGradient>
<linearGradient id="paint3_linear_2314_10906" x1="-4" y1="2.39922" x2="32" y2="27.9992" gradientUnits="userSpaceOnUse">
<stop stop-color="#EE1A13"/>
<stop offset="1" stop-color="#FB6F03"/>
</linearGradient>
<linearGradient id="paint4_linear_2314_10906" x1="-4" y1="2.39922" x2="32" y2="27.9992" gradientUnits="userSpaceOnUse">
<stop stop-color="#EE1A13"/>
<stop offset="1" stop-color="#FB6F03"/>
</linearGradient>
<linearGradient id="paint5_linear_2314_10906" x1="-4" y1="2.39922" x2="32" y2="27.9992" gradientUnits="userSpaceOnUse">
<stop stop-color="#EE1A13"/>
<stop offset="1" stop-color="#FB6F03"/>
</linearGradient>
</defs>
</svg>
