<svg width="30" height="30" viewBox="0 0 30 30" fill="none" xmlns="http://www.w3.org/2000/svg">
<path fill-rule="evenodd" clip-rule="evenodd" d="M16.8952 0.821179L18.8006 2.24743C19.3217 2.63749 19.8702 2.83712 20.5202 2.8733L22.8965 3.00549C24.3194 3.08462 25.4751 4.0543 25.8001 5.44193L26.343 7.75924C26.4914 8.39299 26.7833 8.89849 27.2579 9.34393L28.9933 10.9727C30.0325 11.948 30.2944 13.4337 29.6515 14.7056L28.5778 16.8296C28.2842 17.4105 28.1828 17.9854 28.2601 18.6317L28.5426 20.9949C28.7117 22.41 27.9574 23.7164 26.6474 24.2775L24.4595 25.2145C23.8612 25.4707 23.414 25.8459 23.0578 26.3907L21.7551 28.3825C20.9751 29.5752 19.5575 30.0912 18.1933 29.6789L15.9151 28.9904C15.292 28.8021 14.7083 28.8021 14.0852 28.9904L11.807 29.6789C10.4428 30.0912 9.02521 29.5752 8.24521 28.3825L6.94252 26.3907C6.58621 25.8459 6.13908 25.4707 5.54077 25.2145L3.35277 24.2774C2.04277 23.7163 1.28846 22.4099 1.45758 20.9948L1.74008 18.6315C1.81733 17.9852 1.71596 17.4104 1.42233 16.8295L0.348646 14.7054C-0.294229 13.4336 -0.0322918 11.9479 1.00683 10.9726L2.74227 9.3438C3.2169 8.89837 3.50871 8.39286 3.65715 7.75911L4.20002 5.4418C4.52502 4.05424 5.68071 3.08455 7.10365 3.00537L9.47996 2.87318C10.1299 2.83705 10.6784 2.63737 11.1995 2.2473L13.1049 0.821054C14.2457 -0.0328203 15.7543 -0.0328202 16.8952 0.821179ZM13.7846 15.8161L11.7168 13.7484C11.1809 13.2124 10.3116 13.2124 9.77571 13.7484C9.23977 14.2843 9.23977 15.1535 9.77571 15.6895L12.817 18.7307C13.353 19.2666 14.2223 19.2667 14.7582 18.7307C16.5913 16.8975 18.4037 15.0438 20.2283 13.2022C20.7604 12.6652 20.7587 11.7987 20.2224 11.2654C19.686 10.732 18.817 10.7335 18.2844 11.2714L13.7846 15.8161ZM15 4.77824C12.1775 4.77824 9.62202 5.92237 7.77227 7.77211C5.92252 9.62193 4.7784 12.1773 4.7784 14.9999C4.7784 17.8224 5.92252 20.3779 7.77227 22.2276C9.62202 24.0774 12.1775 25.2215 15 25.2215C17.8226 25.2215 20.378 24.0774 22.2278 22.2276C24.0775 20.3779 25.2217 17.8224 25.2217 14.9999C25.2217 12.1773 24.0775 9.62186 22.2278 7.77211C20.378 5.92237 17.8226 4.77824 15 4.77824ZM21.5207 8.47918C19.852 6.81043 17.5465 5.77824 15 5.77824C12.4535 5.77824 10.1481 6.81043 8.47934 8.47918C6.81059 10.1479 5.7784 12.4534 5.7784 14.9999C5.7784 17.5464 6.81059 19.8518 8.47934 21.5205C10.1481 23.1893 12.4535 24.2215 15 24.2215C17.5465 24.2215 19.852 23.1893 21.5207 21.5206C23.1895 19.8519 24.2216 17.5464 24.2216 14.9999C24.2217 12.4534 23.1895 10.1479 21.5207 8.47918Z" fill="#FE6F46"/>
</svg>
